<?xml version="1.0"?>
<svg xmlns="http://www.w3.org/2000/svg" height="512px" viewBox="0 0 368 368" width="512px"><g><path d="m184 0c-101.464844 0-184 82.535156-184 184s82.535156 184 184 184c34.625 0 67.96875-9.632812 96.984375-27.703125l25.359375 25.359375c1.496094 1.503906 3.527344 2.34375 5.65625 2.34375h48c4.425781 0 8-3.574219 8-8v-48c0-2.128906-.839844-4.160156-2.34375-5.65625l-25.359375-25.359375c18.070313-29.015625 27.703125-62.359375 27.703125-96.984375 0-101.464844-82.535156-184-184-184zm168 352h-36.6875l-27.503906-27.503906c-.199219-.199219-.472656-.28125-.6875-.457032-.425782-.34375-.847656-.640624-1.328125-.878906-.464844-.238281-.921875-.425781-1.417969-.566406-.480469-.144531-.941406-.234375-1.445312-.28125-.53125-.054688-1.035157-.054688-1.5625 0-.488282.046875-.953126.136719-1.429688.28125-.523438.148438-1 .359375-1.488281.613281-.25.136719-.527344.160157-.769531.320313-27.617188 18.632812-60.015626 28.472656-93.679688 28.472656-92.632812 0-168-75.367188-168-168s75.367188-168 168-168 168 75.367188 168 168c0 33.664062-9.839844 66.0625-28.480469 93.679688-.160156.242187-.191406.519531-.320312.777343-.253907.480469-.464844.949219-.605469 1.472657-.144531.496093-.242188.964843-.289062 1.460937-.046876.519531-.046876 1.007813 0 1.53125.046874.511719.144531.980469.289062 1.46875.140625.488281.328125.9375.558594 1.394531.246094.480469.542968.910156.894531 1.34375.175781.214844.25.480469.457031.679688l27.496094 27.503906zm0 0" data-original="#000000" class="active-path" data-old_color="#000000" fill="#232C3B"/><path d="m268.847656 99.152344c-.085937-.089844-.199218-.113282-.289062-.191406-21.703125-21.59375-51.597656-34.960938-84.558594-34.960938-66.167969 0-120 53.832031-120 120s53.832031 120 120 120 120-53.832031 120-120c0-32.960938-13.367188-62.855469-34.960938-84.558594-.078124-.089844-.101562-.210937-.191406-.289062zm-84.847656 188.847656c-57.34375 0-104-46.65625-104-104s46.65625-104 104-104c25.800781 0 49.382812 9.496094 67.574219 25.113281l-73.230469 73.230469c-3.128906 3.128906-3.128906 8.183594 0 11.3125 1.558594 1.558594 3.609375 2.34375 5.65625 2.34375s4.097656-.785156 5.65625-2.34375l73.230469-73.230469c15.617187 18.191407 25.113281 41.773438 25.113281 67.574219 0 57.34375-46.65625 104-104 104zm0 0" data-original="#000000" class="active-path" data-old_color="#000000" fill="#232C3B"/></g> </svg>
